<?xml version="1.0" standalone="no"?>
<!DOCTYPE svg PUBLIC "-//W3C//DTD SVG 20010904//EN"
 "http://www.w3.org/TR/2001/REC-SVG-20010904/DTD/svg10.dtd">
<svg version="1.0" xmlns="http://www.w3.org/2000/svg"
 width="700.000000pt" height="700.000000pt" viewBox="0 0 700.000000 700.000000"
 preserveAspectRatio="xMidYMid meet">
<metadata>
Created by potrace 1.14, written by Peter Selinger 2001-2017
</metadata>
<g transform="translate(0.000000,700.000000) scale(0.100000,-0.100000)"
fill="#000000" stroke="none">
<path d="M3280 6994 c-19 -2 -84 -9 -145 -14 -578 -56 -1180 -283 -1660 -625
-237 -169 -531 -446 -709 -670 -416 -521 -673 -1147 -748 -1820 -17 -155 -17
-575 0 -730 52 -469 198 -931 418 -1327 290 -523 731 -983 1239 -1294 439
-269 920 -432 1460 -496 145 -17 576 -17 730 0 822 91 1556 447 2131 1034 203
206 348 390 487 618 274 449 433 916 499 1465 16 136 16 592 0 730 -86 725
-352 1347 -803 1885 -122 145 -351 370 -494 484 -510 407 -1117 661 -1775 742
-117 15 -553 27 -630 18z m-202 -3139 c-2 -316 -2 -575 -2 -575 1 0 26 33 57
73 30 41 153 180 272 310 l217 237 204 0 c112 0 204 -4 204 -9 0 -5 -119 -138
-265 -297 -145 -159 -263 -294 -260 -301 2 -6 127 -177 277 -380 151 -202 278
-374 282 -380 6 -10 -38 -13 -208 -13 l-214 0 -192 270 c-105 148 -195 272
-201 276 -9 5 -144 -95 -161 -120 -4 -6 -8 -104 -8 -218 l0 -208 -185 0 -185
0 0 955 0 955 186 0 186 0 -4 -575z m1571 318 c0 -142 -4 -301 -8 -353 -4 -52
-6 -97 -4 -99 2 -3 25 20 52 50 90 101 202 149 346 149 143 0 251 -46 346
-147 103 -111 150 -233 170 -446 27 -287 -36 -536 -171 -680 -105 -112 -207
-151 -384 -146 -101 4 -117 7 -176 36 -36 18 -91 55 -123 83 -31 29 -62 50
-68 48 -7 -2 -24 -35 -39 -73 l-28 -70 -146 -3 -146 -3 0 956 0 955 190 0 190
0 -1 -257z m-2470 -282 c67 -17 205 -65 219 -76 2 -2 -22 -63 -53 -137 l-56
-135 -101 38 c-129 49 -196 62 -296 58 -100 -5 -135 -26 -140 -84 -6 -66 21
-85 279 -198 279 -121 361 -203 383 -378 9 -72 -8 -178 -40 -244 -31 -67 -108
-138 -187 -175 -95 -44 -194 -60 -371 -60 -162 0 -261 13 -373 51 l-63 21 0
155 c0 144 1 155 18 148 141 -58 340 -105 443 -105 131 0 205 44 203 121 -2
58 -39 91 -174 156 -306 146 -343 166 -396 219 -71 72 -96 138 -98 264 -1 89
1 100 32 162 18 36 48 80 68 97 64 57 183 106 299 124 74 12 321 -2 404 -22z
m3972 -1017 c64 -35 89 -85 89 -177 0 -36 -5 -78 -11 -94 -26 -70 -100 -112
-197 -113 -158 0 -242 102 -212 260 20 104 84 150 209 150 60 0 82 -5 122 -26z"/>
<path d="M4816 3606 c-59 -22 -88 -47 -118 -102 -35 -64 -48 -143 -48 -290 1
-240 54 -364 174 -399 169 -50 292 36 335 233 16 78 14 276 -4 347 -38 146
-113 217 -234 222 -40 2 -82 -3 -105 -11z"/>
</g>
</svg>
